<svg width="130" height="36" viewBox="0 0 130 36" fill="none" xmlns="http://www.w3.org/2000/svg">
<g filter="url(#filter0_d_2331_3077)">
<path d="M30.5277 24.6827L30.5095 24.6253L42.0683 14.1511V9.10449H23.524V14.1511H34.6006L34.6188 14.1995L23.1729 24.6827V29.7295H42.2544V24.6827H30.5277Z" fill="#FFFDF9"/>
<path d="M53.637 8.62402C51.498 8.62402 49.7547 8.94335 48.4071 9.58199C47.1521 10.1386 46.0946 11.0556 45.3724 12.2141C44.6815 13.3802 44.2476 14.6779 44.0994 16.0217L49.7261 16.8045C49.9296 15.6178 50.3368 14.7767 50.9473 14.2811C51.6415 13.7628 52.4969 13.5008 53.3653 13.5407C54.5072 13.5407 55.3356 13.8429 55.8506 14.4473C56.3605 15.0517 56.62 15.8888 56.62 16.9918V17.5418H51.2099C48.456 17.5418 46.4776 18.1462 45.2749 19.355C44.0718 20.5638 43.4715 22.1594 43.4736 24.1418C43.4736 26.1725 44.0739 27.6836 45.2749 28.6747C46.4755 29.666 47.9859 30.1586 49.8056 30.1524C52.0627 30.1524 53.799 29.3839 55.0139 27.8468C55.7315 26.902 56.244 25.8207 56.5191 24.6706H56.7237L57.4993 29.7172H62.5979V16.9374C62.5979 14.2962 61.8946 12.2504 60.4882 10.7998C59.0816 9.34932 56.7981 8.62402 53.637 8.62402ZM55.4201 24.3775C54.6109 25.0453 53.5517 25.3778 52.2327 25.3778C51.1457 25.3778 50.3906 25.1894 49.9673 24.8127C49.7612 24.6344 49.5968 24.4134 49.4866 24.1653C49.3764 23.9173 49.3225 23.6482 49.3293 23.3772C49.3171 23.1217 49.3579 22.8664 49.4486 22.6269C49.5394 22.3874 49.6785 22.1687 49.8574 21.9841C50.0508 21.8045 50.2791 21.6656 50.5284 21.5757C50.7778 21.4859 51.0427 21.4469 51.3076 21.4613H56.6291V21.8088C56.64 22.3001 56.5365 22.7872 56.3269 23.2325C56.1171 23.6779 55.8069 24.0697 55.4201 24.3775Z" fill="#FFFDF9"/>
<path d="M93.4255 9.10449H87.4019V29.7323H93.4255V9.10449Z" fill="#FFFDF9"/>
<path d="M128.988 9.10449C127.287 9.10449 125.946 9.6988 124.965 10.8874C124.26 11.7416 123.725 13.0038 123.359 14.6739H123.181L122.394 9.10449H117.249V29.7295H123.273V19.1525C123.273 17.8188 123.589 16.7964 124.22 16.0852C124.85 15.374 126.015 15.0184 127.712 15.0184H129.999V9.10449H128.988Z" fill="#FFFDF9"/>
<path d="M111.278 9.77905C109.871 8.95104 108.098 8.53804 105.956 8.54005C102.586 8.54005 99.948 9.48996 98.043 11.3897C96.138 13.2895 95.1852 15.9086 95.1852 19.2468C95.1366 21.2651 95.5817 23.265 96.483 25.0762C97.307 26.6902 98.592 28.0297 100.177 28.9291C101.773 29.842 103.671 30.2993 105.871 30.3011C107.774 30.3011 109.364 30.011 110.64 29.431C111.84 28.9098 112.884 28.093 113.674 27.0587C114.427 26.0432 114.986 24.9002 115.323 23.6861L110.133 22.2476C109.915 23.0372 109.494 23.7575 108.912 24.3388C108.325 24.9191 107.343 25.2092 105.965 25.2092C104.327 25.2092 103.106 24.7448 102.302 23.816C101.719 23.1452 101.352 22.1872 101.19 20.9452H115.403C115.461 20.365 115.491 19.8784 115.491 19.4856V18.2012C115.525 16.4758 115.165 14.7651 114.438 13.1969C113.757 11.7682 112.655 10.5769 111.278 9.77905ZM105.782 13.4567C108.225 13.4567 109.61 14.6464 109.937 17.0257H101.297C101.435 16.2318 101.767 15.4835 102.265 14.8469C103.057 13.9181 104.229 13.4547 105.782 13.4567Z" fill="#FFFDF9"/>
<path d="M90.4782 0.791974C90.025 0.77672 89.5734 0.851785 89.1501 1.01272C88.7268 1.17365 88.3407 1.41715 88.0144 1.72876C87.6928 2.04336 87.4406 2.42073 87.2739 2.8369C87.1073 3.25307 87.0298 3.69895 87.0467 4.14631C87.0303 4.59655 87.1081 5.04527 87.2747 5.46447C87.4416 5.8837 87.6938 6.2644 88.0157 6.58282C88.3379 6.90125 88.7227 7.15057 89.1462 7.31525C89.57 7.47993 90.0234 7.55642 90.4782 7.53994C90.9301 7.55685 91.3809 7.48039 91.8013 7.31546C92.2217 7.15054 92.6029 6.90073 92.9206 6.58197C93.2357 6.25992 93.4817 5.87814 93.6437 5.45955C93.8059 5.04097 93.8808 4.59428 93.8639 4.14631C93.8847 3.70098 93.8116 3.25625 93.6489 2.84052C93.4864 2.42478 93.2381 2.04718 92.9198 1.73181C92.6013 1.41644 92.2202 1.17024 91.8003 1.00894C91.3804 0.847631 90.9311 0.774774 90.4813 0.794999L90.4782 0.791974Z" fill="#FFFDF9"/>
<path d="M78.0364 8.54004C75.985 8.54004 74.3364 9.17766 73.0907 10.4529C72.1685 11.3977 71.4919 12.808 71.0603 14.6836H70.8679L70.0804 9.11419H64.9358V35.6592H70.9595V24.7256H71.1794C71.3632 25.4547 71.6209 26.1634 71.9488 26.841C72.4584 27.9447 73.294 28.8699 74.3454 29.4943C75.4356 30.0831 76.6636 30.3762 77.9051 30.3435C80.4271 30.3435 82.3475 29.3715 83.6665 27.4272C84.9852 25.4831 85.6448 22.7704 85.6448 19.2891C85.6448 15.9267 85.0068 13.2946 83.7304 11.3927C82.4543 9.49096 80.5563 8.54004 78.0364 8.54004ZM78.6472 23.4866C77.9449 24.494 76.8459 24.9976 75.3498 24.9976C74.7331 25.0258 74.1182 24.9081 73.5566 24.6543C72.9948 24.4005 72.5023 24.0178 72.1198 23.538C71.3401 22.569 70.9514 21.2423 70.9535 19.5581V19.1652C70.9535 17.4548 71.3422 16.1453 72.1198 15.2367C72.8972 14.3281 73.9739 13.8788 75.3498 13.8889C76.8724 13.8889 77.9784 14.3673 78.6685 15.3243C79.3585 16.2813 79.7035 17.616 79.7035 19.3284C79.7077 21.0993 79.3575 22.4853 78.6531 23.4866H78.6472Z" fill="#FFFDF9"/>
<path d="M20.8401 24.6826H0V29.7354H20.8401V24.6826Z" fill="#FF4F00"/>
</g>
<defs>
<filter id="filter0_d_2331_3077" x="-4" y="0.790039" width="137.999" height="42.8691" filterUnits="userSpaceOnUse" color-interpolation-filters="sRGB">
<feFlood flood-opacity="0" result="BackgroundImageFix"/>
<feColorMatrix in="SourceAlpha" type="matrix" values="0 0 0 0 0 0 0 0 0 0 0 0 0 0 0 0 0 0 127 0" result="hardAlpha"/>
<feOffset dy="4"/>
<feGaussianBlur stdDeviation="2"/>
<feComposite in2="hardAlpha" operator="out"/>
<feColorMatrix type="matrix" values="0 0 0 0 0 0 0 0 0 0 0 0 0 0 0 0 0 0 0.25 0"/>
<feBlend mode="normal" in2="BackgroundImageFix" result="effect1_dropShadow_2331_3077"/>
<feBlend mode="normal" in="SourceGraphic" in2="effect1_dropShadow_2331_3077" result="shape"/>
</filter>
</defs>
</svg>
